<svg version="1.1" xmlns="http://www.w3.org/2000/svg" style="display: block;" viewBox="0 0 2048 1800" width="694" height="610" preserveAspectRatio="none">
<path transform="translate(0,0)" fill="rgb(44,110,73)" d="M 944.397 145.436 C 966.996 143.677 999.868 144.837 1023.57 144.721 C 1044.39 144.62 1074.14 143.881 1093.99 145.066 C 1237.54 152.488 1378.04 189.329 1506.77 253.303 C 1548.58 274.207 1573.87 287.906 1612.97 315.044 L 1615.28 314.521 C 1629.44 326.876 1646.68 338.177 1661.73 350.457 C 1709.19 389.183 1753.21 432.235 1790.49 480.989 C 1845.36 551.74 1883.22 634.168 1901.13 721.894 C 1904.97 740.182 1910.72 770.752 1911.66 789.228 C 1913.44 824.145 1912.35 858.747 1907.79 893.175 C 1892.52 1008.64 1839.61 1109.91 1759.23 1193.35 C 1752.87 1199.36 1746.82 1209.02 1740.36 1214.64 C 1717.41 1234.59 1694.1 1256.66 1669.94 1274.93 C 1504.45 1400.04 1295.52 1462.95 1089.51 1469.55 C 1072.33 1470.26 1054.8 1473.24 1037.55 1472.31 C 994.46 1469.98 951.959 1467.12 909.143 1461.36 C 887.952 1459.2 871.685 1454.52 849.653 1455.15 C 838.623 1460.07 714.539 1626.52 694.911 1649.95 C 672.4 1641.95 645.306 1626.79 624.312 1614.94 C 503.917 1545.71 398.842 1452.73 315.461 1341.67 C 290.484 1308.3 267.761 1273.3 247.442 1236.91 C 242.991 1228.96 233.545 1210.16 228.766 1201.57 C 226.98 1198.36 228.182 1204.33 225.088 1199.49 C 230.373 1193.99 220.919 1191.42 219.21 1186.07 L 220.603 1184.59 C 219.272 1182.01 215.673 1178.51 213.686 1176.04 C 214.106 1174.95 214.526 1173.87 214.946 1172.78 C 212.807 1168.61 209.5 1160.69 207.762 1156.84 C 200.578 1140.93 194.818 1125.17 188.844 1108.83 C 172.846 1065.52 160.762 1020.86 152.737 975.393 C 150.273 961.269 149.59 946.517 146.839 932.574 C 145.845 927.538 142.214 923.398 141.593 918.209 C 140.809 911.665 145.584 902.51 143.192 896.924 C 140 889.469 141.584 828.027 141.943 815.402 C 142.361 800.674 144.863 785.703 146.551 771.064 C 161.083 645.023 219.775 526.368 304.257 432.5 C 316.882 418.473 330.847 405.149 344.403 391.99 C 358.716 378.096 374.566 364.645 390.301 352.356 C 402.475 342.848 415.227 333.985 426.445 323.338 C 428.467 323.869 427.409 323.617 429.625 324.09 C 449.932 306.325 494.863 280.648 519.162 267.397 C 611.85 217.756 711.62 182.665 814.976 163.355 C 831.607 160.209 848.513 158.076 865.243 155.478 C 870.832 154.61 904.287 147.566 906.905 148.453 C 914.285 150.952 934.906 147.419 943.233 145.684 L 944.397 145.436 z"/>
<path transform="translate(0,0)" fill="rgb(255,255,255)" d="M 1030.68 800.688 C 1033.38 797.829 1042.51 783.598 1045.62 779.22 C 1124.16 670.107 1235.45 568.325 1371.43 542.869 C 1479.89 522.566 1577.54 585.488 1597.55 695.16 C 1627.7 860.414 1499.04 1086.04 1326.4 1112.72 C 1270.53 1120.12 1236.85 1112.71 1186.31 1087.56 C 1105.97 1047.57 1036.3 943.483 1010.05 859.447 C 1005.2 864.354 998.315 874.903 993.908 880.933 C 914.406 989.728 801.926 1089 665.226 1112.28 C 614.438 1121.29 553.429 1110.68 511.416 1079.15 C 410.202 1003.17 425.664 852.135 471.611 750.284 C 518.945 645.359 598.483 557.749 715.697 540.278 C 767.703 536.909 802.753 542.777 848.81 567.059 C 926.501 608.02 979.381 682.793 1014.98 761.173 C 1020.82 774.03 1025.28 787.615 1030.68 800.688 z"/>
</svg>